<svg xmlns="http://www.w3.org/2000/svg" viewBox="0 0 64 64"><defs><style>.cls-1{fill:#fff;}</style></defs><g id="Warstwa_2" data-name="Warstwa 2"><g id="Warstwa_1-2" data-name="Warstwa 1"><path class="cls-1" d="M30.64,13.8c-.6.68-1,1.83-1.15,3.74-.22,2.09-.22,4.91-.22,8.82a1.5,1.5,0,0,1-1.49,1.51H23.63v4h4.15a1.5,1.5,0,0,1,1.49,1.5V51.65h4V33.42a1.51,1.51,0,0,1,1.51-1.51h5.55v-4H34.82a1.52,1.52,0,0,1-1.51-1.51,51,51,0,0,1,.15-5.27,5.13,5.13,0,0,1,1.4-3.42L35,17.6a5,5,0,0,1,2.88-1.08c.72-.08,1.55-.11,2.54-.12v-4a64,64,0,0,0-6.48.23A5.15,5.15,0,0,0,30.64,13.8Z"/><path class="cls-1" d="M54.67,9.24A31,31,0,0,0,32,0,31,31,0,0,0,9.33,9.24,30.47,30.47,0,0,0,0,31.76,31.2,31.2,0,0,0,9.33,54.6,30.71,30.71,0,0,0,32,64a30.72,30.72,0,0,0,22.67-9.4A31.2,31.2,0,0,0,64,31.76,30.47,30.47,0,0,0,54.67,9.24ZM43.37,17.9a1.51,1.51,0,0,1-1.51,1.51c-1.58,0-2.83,0-3.7.1a2.39,2.39,0,0,0-1.23.35,2.53,2.53,0,0,0-.48,1.56,32.28,32.28,0,0,0-.12,3.43h5.53a1.51,1.51,0,0,1,1.51,1.51v7.06a1.5,1.5,0,0,1-1.51,1.49H36.33V53.77h-.15a1.49,1.49,0,0,1-1.36.88h-7a1.5,1.5,0,0,1-1.49-1.5V34.91H22.13a1.5,1.5,0,0,1-1.5-1.49V26.36a1.51,1.51,0,0,1,1.5-1.51h4.14c0-3.07,0-5.59.23-7.6.26-2.64.84-4.27,1.92-5.46S31.05,9.9,33.54,9.6a76.46,76.46,0,0,1,8.32-.25,1.5,1.5,0,0,1,1.51,1.5Z"/></g></g></svg>