<svg xmlns="http://www.w3.org/2000/svg" xmlns:xlink="http://www.w3.org/1999/xlink" viewBox="0 0 64 64"><defs><style>.cls-1{fill:url(#Gradient_bez_nazwy_254);}.cls-2{fill:#fff;}</style><linearGradient id="Gradient_bez_nazwy_254" x1="15.89" y1="59.77" x2="48.02" y2="4.11" gradientUnits="userSpaceOnUse"><stop offset="0" stop-color="#8cc63f"/><stop offset="0.39" stop-color="#78c45f"/><stop offset="1" stop-color="#5ac18e"/></linearGradient></defs><g id="Warstwa_2" data-name="Warstwa 2"><g id="Warstwa_1-2" data-name="Warstwa 1"><path class="cls-1" d="M32,0A31,31,0,0,0,9.33,9.24,30.47,30.47,0,0,0,0,31.76,31.2,31.2,0,0,0,9.33,54.6,30.71,30.71,0,0,0,32,64a30.72,30.72,0,0,0,22.67-9.4A31.2,31.2,0,0,0,64,31.76,30.47,30.47,0,0,0,54.67,9.24,31,31,0,0,0,32,0Z"/><path class="cls-2" d="M31.92,47.73a1.51,1.51,0,0,1-.77-.21C13.41,36.85,13.89,27.34,14.92,23.75A10.39,10.39,0,0,1,25,16.27c.35,0,.69,0,1,.07A9,9,0,0,1,32,19.28a9,9,0,0,1,6-2.94,10.38,10.38,0,0,1,11,6.9c1,2.84,2.7,13-16.07,24.28a1.6,1.6,0,0,1-.85.21ZM24.84,19.27a7.33,7.33,0,0,0-7,5.31C16.09,30.55,21.39,38,32,44.52c16.11-9.93,14.86-18,14.08-20.3a7.34,7.34,0,0,0-7.77-4.9,5.83,5.83,0,0,0-5,3.32,1.5,1.5,0,0,1-2.72,0,5.83,5.83,0,0,0-4.95-3.32,5.81,5.81,0,0,0-.72-.05Z"/></g></g></svg>