<svg xmlns="http://www.w3.org/2000/svg" xmlns:xlink="http://www.w3.org/1999/xlink" viewBox="0 0 64 64"><defs><style>.cls-1{fill:url(#Gradient_bez_nazwy_254);}.cls-2{fill:#fff;}</style><linearGradient id="Gradient_bez_nazwy_254" x1="15.89" y1="59.77" x2="48.02" y2="4.11" gradientUnits="userSpaceOnUse"><stop offset="0" stop-color="#8cc63f"/><stop offset="0.39" stop-color="#78c45f"/><stop offset="1" stop-color="#5ac18e"/></linearGradient></defs><g id="Warstwa_2" data-name="Warstwa 2"><g id="Warstwa_1-2" data-name="Warstwa 1"><path class="cls-1" d="M32,0A31,31,0,0,0,9.33,9.24,30.47,30.47,0,0,0,0,31.76,31.2,31.2,0,0,0,9.33,54.6,30.71,30.71,0,0,0,32,64a30.72,30.72,0,0,0,22.67-9.4A31.2,31.2,0,0,0,64,31.76,30.47,30.47,0,0,0,54.67,9.24,31,31,0,0,0,32,0Z"/><path class="cls-2" d="M32.57,48.8V41.66H17.15V33.38L27.59,15.2H42.05V33.74h4.8v7.92h-4.8V48.8Zm0-18.24c0-3.9.06-8.28.06-8.34h-.42L25.91,33.5l.12.24h6.54Z"/></g></g></svg>