<svg xmlns="http://www.w3.org/2000/svg" viewBox="0 0 64 64"><defs><style>.cls-1{fill:#fff;}</style></defs><g id="Warstwa_2" data-name="Warstwa 2"><g id="Warstwa_1-2" data-name="Warstwa 1"><path class="cls-1" d="M32,25.34A6.66,6.66,0,1,0,38.66,32,6.67,6.67,0,0,0,32,25.34Z"/><path class="cls-1" d="M41.27,18.28H22.73a4.46,4.46,0,0,0-4.45,4.45V41.27a4.46,4.46,0,0,0,4.45,4.45H41.27a4.46,4.46,0,0,0,4.45-4.45V22.73a4.46,4.46,0,0,0-4.45-4.45ZM32,41.93A9.93,9.93,0,1,1,41.93,32,9.94,9.94,0,0,1,32,41.93Zm9.78-18.35a1.67,1.67,0,1,1,0-3.33,1.67,1.67,0,0,1,0,3.33Z"/><path class="cls-1" d="M54.67,9.24A31,31,0,0,0,32,0,31,31,0,0,0,9.33,9.24,30.47,30.47,0,0,0,0,31.76,31.2,31.2,0,0,0,9.33,54.6,30.71,30.71,0,0,0,32,64a30.72,30.72,0,0,0,22.67-9.4A31.2,31.2,0,0,0,64,31.76,30.47,30.47,0,0,0,54.67,9.24ZM49,41.27A7.75,7.75,0,0,1,41.27,49H22.73A7.75,7.75,0,0,1,15,41.27V22.73A7.75,7.75,0,0,1,22.73,15H41.27A7.75,7.75,0,0,1,49,22.73Z"/></g></g></svg>