<svg xmlns="http://www.w3.org/2000/svg" xmlns:xlink="http://www.w3.org/1999/xlink" viewBox="0 0 64 64"><defs><style>.cls-1{fill:url(#Gradient_bez_nazwy_254);}.cls-2{fill:#fff;}</style><linearGradient id="Gradient_bez_nazwy_254" x1="15.89" y1="59.77" x2="48.02" y2="4.11" gradientUnits="userSpaceOnUse"><stop offset="0" stop-color="#8cc63f"/><stop offset="0.39" stop-color="#78c45f"/><stop offset="1" stop-color="#5ac18e"/></linearGradient></defs><g id="Warstwa_2" data-name="Warstwa 2"><g id="Warstwa_1-2" data-name="Warstwa 1"><path class="cls-1" d="M32,0A31,31,0,0,0,9.33,9.24,30.47,30.47,0,0,0,0,31.76,31.2,31.2,0,0,0,9.33,54.6,30.71,30.71,0,0,0,32,64a30.72,30.72,0,0,0,22.67-9.4A31.2,31.2,0,0,0,64,31.76,30.47,30.47,0,0,0,54.67,9.24,31,31,0,0,0,32,0Z"/><path class="cls-2" d="M32,49.39a1.24,1.24,0,0,1-1-.54c-1.12-1.63-11-16.1-11-22.24a12,12,0,0,1,24,0c0,6.14-9.85,20.61-11,22.24A1.24,1.24,0,0,1,32,49.39Zm0-32.28a9.51,9.51,0,0,0-9.5,9.5c0,4.08,6.13,14.2,9.5,19.3,3.37-5.1,9.5-15.22,9.5-19.3A9.51,9.51,0,0,0,32,17.11Z"/><path class="cls-2" d="M32,32.49a5.26,5.26,0,1,1,5.25-5.26A5.26,5.26,0,0,1,32,32.49Zm0-8a2.76,2.76,0,1,0,2.75,2.75A2.75,2.75,0,0,0,32,24.48Z"/></g></g></svg>