<svg xmlns="http://www.w3.org/2000/svg" viewBox="0 0 110 25.38"><defs><style>.cls-1{fill:none;}.cls-2{fill:#fff;}</style></defs><g id="Warstwa_2" data-name="Warstwa 2"><g id="Warstwa_1-2" data-name="Warstwa 1"><rect class="cls-1" width="110" height="25.38"/><path class="cls-2" d="M30,1A2.4,2.4,0,0,0,28.62.35l-.33,0a2.06,2.06,0,0,0-1.94,1.26L24.71,4.88,22,10.32,17.61,1.61A2,2,0,0,0,15.66.33,2.44,2.44,0,0,0,14,1a2,2,0,0,0-.73,1.58,2.42,2.42,0,0,0,.28,1.09l1.64,3.24v0l0,0-1.7,3.4L10.77,4.88,9.13,1.59a2.08,2.08,0,0,0-2-1.26H3.7A2.22,2.22,0,0,0,2.07,1,2.2,2.2,0,0,0,1.43,2.6a2.23,2.23,0,0,0,.64,1.65,2.22,2.22,0,0,0,1.63.63h2l5.59,11.17a5.46,5.46,0,0,0,.52.91,2.28,2.28,0,0,0,3.4,0,8.72,8.72,0,0,0,.53-.9l2-4,2,4a7.38,7.38,0,0,0,.53.91,2.24,2.24,0,0,0,3.38,0,7.24,7.24,0,0,0,.54-.91L29.8,4.88l.61-1.24a2.44,2.44,0,0,0,.29-1.09V2.49A2.05,2.05,0,0,0,30,1Z"/><path class="cls-2" d="M22,19.43a2.76,2.76,0,0,0-2,.81,2.66,2.66,0,0,0-.82,2,2.83,2.83,0,0,0,5.66,0,2.67,2.67,0,0,0-.83-2A2.75,2.75,0,0,0,22,19.43Z"/><path class="cls-2" d="M13.46,19.43a2.76,2.76,0,0,0-2,.81,2.66,2.66,0,0,0-.82,2,2.82,2.82,0,0,0,2.83,2.83,2.83,2.83,0,0,0,2.83-2.83,2.67,2.67,0,0,0-.83-2A2.74,2.74,0,0,0,13.46,19.43Z"/><path class="cls-2" d="M34.43,8.44A.65.65,0,0,1,34.62,8a.62.62,0,0,1,.48-.19.64.64,0,0,1,.64.44l2.45,7,2-7a.62.62,0,0,1,.21-.31.61.61,0,0,1,.39-.13.59.59,0,0,1,.4.14.69.69,0,0,1,.22.32l2,7,2.47-7a.62.62,0,0,1,.63-.45A.65.65,0,0,1,47,8a.66.66,0,0,1,.2.48.8.8,0,0,1-.06.3L44,17.28a.62.62,0,0,1-.63.44.57.57,0,0,1-.38-.13.64.64,0,0,1-.23-.35l-1.95-6.72-2,6.71a.62.62,0,0,1-.24.35.68.68,0,0,1-.41.14.62.62,0,0,1-.63-.44L34.49,8.74A.8.8,0,0,1,34.43,8.44Z"/><path class="cls-2" d="M48,14.8a2.65,2.65,0,0,1,1-2.19,4.21,4.21,0,0,1,2.71-.8h3v-.56A2.26,2.26,0,0,0,54,9.54a2.58,2.58,0,0,0-1.83-.63,3.24,3.24,0,0,0-1.4.26,3.17,3.17,0,0,0-1.06.82.72.72,0,0,1-.55.3.59.59,0,0,1-.44-.18.58.58,0,0,1-.17-.44.7.7,0,0,1,.1-.36A3.42,3.42,0,0,1,50.05,8.1a4.75,4.75,0,0,1,2.16-.45,3.89,3.89,0,0,1,2.83,1,3.48,3.48,0,0,1,1,2.63v5.82a.59.59,0,0,1-.2.46.68.68,0,0,1-.94,0,.62.62,0,0,1-.19-.46V16.3a2.59,2.59,0,0,1-1.22,1.13,4.07,4.07,0,0,1-1.81.4A4.16,4.16,0,0,1,49,17,2.73,2.73,0,0,1,48,14.8Zm1.37,0a1.6,1.6,0,0,0,.6,1.33,2.94,2.94,0,0,0,1.81.47,3.14,3.14,0,0,0,2.05-.71,2.47,2.47,0,0,0,.86-2V13h-3a2.84,2.84,0,0,0-1.7.46A1.54,1.54,0,0,0,49.39,14.8Z"/><path class="cls-2" d="M58.56,17.05V8.44A.65.65,0,0,1,58.75,8a.67.67,0,0,1,.49-.19.65.65,0,0,1,.67.67v.68a2.36,2.36,0,0,1,1-1,3.42,3.42,0,0,1,1.72-.42,4.9,4.9,0,0,1,2.11.4A2.87,2.87,0,0,1,66,9.12a3.4,3.4,0,0,1,3.1-1.47,5.61,5.61,0,0,1,1.66.22A3.59,3.59,0,0,1,72,8.44a2.82,2.82,0,0,1,.71.86,3.75,3.75,0,0,1,.37,1,5.22,5.22,0,0,1,.1,1.08v5.66a.69.69,0,0,1-.19.48.65.65,0,0,1-.48.19.67.67,0,0,1-.69-.67V11.67a3.24,3.24,0,0,0-.59-2.1,2.53,2.53,0,0,0-2.05-.72,2.68,2.68,0,0,0-2,.66,2.56,2.56,0,0,0-.66,1.88v5.66a.69.69,0,0,1-.19.48.65.65,0,0,1-.48.19.67.67,0,0,1-.69-.67V11.67a3.33,3.33,0,0,0-.57-2.1,2.44,2.44,0,0,0-2-.72,2.38,2.38,0,0,0-2,.77,3.48,3.48,0,0,0-.6,2.19v5.24a.65.65,0,0,1-.67.67.67.67,0,0,1-.49-.19A.65.65,0,0,1,58.56,17.05Z"/><path class="cls-2" d="M74.91,9a.61.61,0,0,1-.18-.45.65.65,0,0,1,.18-.46.61.61,0,0,1,.45-.18h.83V5.71a.64.64,0,0,1,.21-.47.67.67,0,0,1,.47-.2.68.68,0,0,1,.68.67V7.94h1.38a.61.61,0,0,1,.45.18.65.65,0,0,1,.18.46.62.62,0,0,1-.63.63H77.55v5.84a1.49,1.49,0,0,0,.33,1,1.15,1.15,0,0,0,.9.37.67.67,0,0,1,.47.18.63.63,0,0,1,0,.9.67.67,0,0,1-.47.18A2.47,2.47,0,0,1,76.87,17a2.76,2.76,0,0,1-.68-1.94V9.21h-.83A.61.61,0,0,1,74.91,9Z"/><path class="cls-2" d="M81.36,14V8.44A.69.69,0,0,1,81.55,8,.65.65,0,0,1,82,7.77a.7.7,0,0,1,.49.2.65.65,0,0,1,.2.47V14a3.62,3.62,0,0,0,.11,1,2.29,2.29,0,0,0,.37.81,1.81,1.81,0,0,0,.8.57,3.78,3.78,0,0,0,1.3.2,3.84,3.84,0,0,0,1.31-.2,1.78,1.78,0,0,0,.79-.57,2.52,2.52,0,0,0,.37-.8,4.1,4.1,0,0,0,.11-1V8.44a.65.65,0,0,1,.2-.47.72.72,0,0,1,.5-.2A.62.62,0,0,1,89,8a.65.65,0,0,1,.19.48V14a7,7,0,0,1-.09,1.17,3.82,3.82,0,0,1-.35,1,2.62,2.62,0,0,1-.68.86,3.37,3.37,0,0,1-1.14.56,6,6,0,0,1-1.67.21,5.88,5.88,0,0,1-1.66-.21,3.37,3.37,0,0,1-1.14-.56,2.79,2.79,0,0,1-.69-.86,3.82,3.82,0,0,1-.35-1A6,6,0,0,1,81.36,14Z"/><path class="cls-2" d="M91.1,16.73a1,1,0,1,1,2,0,1,1,0,0,1-2,0Z"/><path class="cls-2" d="M95.16,21.13V8.44a.65.65,0,0,1,.2-.47.69.69,0,0,1,.48-.2.66.66,0,0,1,.48.2.64.64,0,0,1,.19.47v.68a2.83,2.83,0,0,1,1.12-1,3.47,3.47,0,0,1,1.77-.44,4.21,4.21,0,0,1,3.27,1.26,5.51,5.51,0,0,1,1.16,3.81,5.58,5.58,0,0,1-1.16,3.84,4.18,4.18,0,0,1-3.27,1.27,3.37,3.37,0,0,1-1.75-.44,3.07,3.07,0,0,1-1.14-1.05v4.79a.65.65,0,0,1-.2.48.63.63,0,0,1-.94,0A.66.66,0,0,1,95.16,21.13ZM97.28,9.82a4.38,4.38,0,0,0-.81,2.9,4.5,4.5,0,0,0,.8,2.92,2.65,2.65,0,0,0,2.13,1,2.76,2.76,0,0,0,2.27-1,4.57,4.57,0,0,0,.78-2.92,4.48,4.48,0,0,0-.8-2.9,2.85,2.85,0,0,0-2.29-1A2.58,2.58,0,0,0,97.28,9.82Z"/><path class="cls-2" d="M105.73,15.25V3.15a.62.62,0,0,1,.21-.47.62.62,0,0,1,.47-.21.66.66,0,0,1,.48.2.65.65,0,0,1,.19.48v12.1c0,.8.29,1.21.85,1.21a.64.64,0,0,1,.45.18.63.63,0,0,1,0,.9.64.64,0,0,1-.45.18,2.08,2.08,0,0,1-1.63-.63A2.63,2.63,0,0,1,105.73,15.25Z"/></g></g></svg>