<svg xmlns="http://www.w3.org/2000/svg" xmlns:xlink="http://www.w3.org/1999/xlink" viewBox="0 0 64 64"><defs><style>.cls-1{fill:url(#Gradient_bez_nazwy_254);}.cls-2{fill:#fff;}</style><linearGradient id="Gradient_bez_nazwy_254" x1="15.89" y1="59.77" x2="48.02" y2="4.11" gradientUnits="userSpaceOnUse"><stop offset="0" stop-color="#8cc63f"/><stop offset="0.39" stop-color="#78c45f"/><stop offset="1" stop-color="#5ac18e"/></linearGradient></defs><g id="Warstwa_2" data-name="Warstwa 2"><g id="Warstwa_1-2" data-name="Warstwa 1"><path class="cls-1" d="M32,0A31,31,0,0,0,9.33,9.24,30.47,30.47,0,0,0,0,31.76,31.2,31.2,0,0,0,9.33,54.6,30.71,30.71,0,0,0,32,64a30.72,30.72,0,0,0,22.67-9.4A31.2,31.2,0,0,0,64,31.76,30.47,30.47,0,0,0,54.67,9.24,31,31,0,0,0,32,0Z"/><path class="cls-2" d="M47.6,43.82H16.4a1.65,1.65,0,0,1-1.65-1.66V21.84a1.65,1.65,0,0,1,1.65-1.66H47.6a1.65,1.65,0,0,1,1.65,1.66V42.16A1.65,1.65,0,0,1,47.6,43.82Zm-30.35-2.5h29.5V22.68H17.25Z"/><path class="cls-2" d="M32,39.16a3,3,0,0,1-2.06-.85l-14-14.12a1.26,1.26,0,0,1,1.78-1.77l14,14.11a.44.44,0,0,0,.63,0l14-14.1a1.26,1.26,0,0,1,1.78,1.77l-14,14.11A3,3,0,0,1,32,39.16Z"/></g></g></svg>