<svg xmlns="http://www.w3.org/2000/svg" xmlns:xlink="http://www.w3.org/1999/xlink" viewBox="0 0 64 64"><defs><style>.cls-1{fill:url(#Gradient_bez_nazwy_254);}.cls-2{fill:#fff;}</style><linearGradient id="Gradient_bez_nazwy_254" x1="15.89" y1="59.77" x2="48.02" y2="4.11" gradientUnits="userSpaceOnUse"><stop offset="0" stop-color="#8cc63f"/><stop offset="0.39" stop-color="#78c45f"/><stop offset="1" stop-color="#5ac18e"/></linearGradient></defs><g id="Warstwa_2" data-name="Warstwa 2"><g id="Warstwa_1-2" data-name="Warstwa 1"><path class="cls-1" d="M32,0A31,31,0,0,0,9.33,9.24,30.47,30.47,0,0,0,0,31.76,31.2,31.2,0,0,0,9.33,54.6,30.71,30.71,0,0,0,32,64a30.72,30.72,0,0,0,22.67-9.4A31.2,31.2,0,0,0,64,31.76,30.47,30.47,0,0,0,54.67,9.24,31,31,0,0,0,32,0Z"/><path class="cls-2" d="M19.34,38.87l11.34-7.68c3.18-2.22,4.8-3.54,4.8-5.4,0-1.62-1.2-2.94-3.84-2.94a3.72,3.72,0,0,0-4,3l-8.94-2.4c1.62-6.42,7.08-8.58,13.44-8.58,8.46,0,13,3.78,13,10.38,0,6.36-4.2,9-8.88,11.64L30,40.61l.06.3c.84-.06,2.64-.24,5.1-.24H45.26v8.46H19.34Z"/></g></g></svg>