<svg xmlns="http://www.w3.org/2000/svg" xmlns:xlink="http://www.w3.org/1999/xlink" viewBox="0 0 64 64"><defs><style>.cls-1{fill:url(#Gradient_bez_nazwy_254);}.cls-2{fill:#fff;}</style><linearGradient id="Gradient_bez_nazwy_254" x1="15.89" y1="59.77" x2="48.02" y2="4.11" gradientUnits="userSpaceOnUse"><stop offset="0" stop-color="#8cc63f"/><stop offset="0.39" stop-color="#78c45f"/><stop offset="1" stop-color="#5ac18e"/></linearGradient></defs><g id="Warstwa_2" data-name="Warstwa 2"><g id="Warstwa_1-2" data-name="Warstwa 1"><path class="cls-1" d="M32,0A31,31,0,0,0,9.33,9.24,30.47,30.47,0,0,0,0,31.76,31.2,31.2,0,0,0,9.33,54.6,30.71,30.71,0,0,0,32,64a30.72,30.72,0,0,0,22.67-9.4A31.2,31.2,0,0,0,64,31.76,30.47,30.47,0,0,0,54.67,9.24,31,31,0,0,0,32,0Z"/><path class="cls-2" d="M38.69,31.46c3.66.24,6.9,2.94,6.9,7.92,0,6-4.8,10.08-13.2,10.08-7.14,0-12.36-3-14-9.48l8.4-2.28c.66,2.4,2.28,3.72,5.16,3.72S36.35,40,36.35,38s-1.68-3.12-4.14-3.12h-3.9v-6.6h3.48c2.64,0,4.14-1.32,4.14-3.12s-1.44-3-4-3c-2.76,0-4.14,1.44-4.38,3.18l-8.52-2.22c1.68-6.66,7.44-8.58,13.68-8.58,8.16,0,12.48,3.18,12.48,8.82S41.15,31,38.69,31.22Z"/></g></g></svg>