<svg xmlns="http://www.w3.org/2000/svg" xmlns:xlink="http://www.w3.org/1999/xlink" viewBox="0 0 64 64"><defs><style>.cls-1{fill:url(#Gradient_bez_nazwy_254);}.cls-2{fill:#fff;}</style><linearGradient id="Gradient_bez_nazwy_254" x1="15.89" y1="59.77" x2="48.02" y2="4.11" gradientUnits="userSpaceOnUse"><stop offset="0" stop-color="#8cc63f"/><stop offset="0.39" stop-color="#78c45f"/><stop offset="1" stop-color="#5ac18e"/></linearGradient></defs><g id="Warstwa_2" data-name="Warstwa 2"><g id="Warstwa_1-2" data-name="Warstwa 1"><path class="cls-1" d="M32,0A31,31,0,0,0,9.33,9.24,30.47,30.47,0,0,0,0,31.76,31.2,31.2,0,0,0,9.33,54.6,30.71,30.71,0,0,0,32,64a30.72,30.72,0,0,0,22.67-9.4A31.2,31.2,0,0,0,64,31.76,30.47,30.47,0,0,0,54.67,9.24,31,31,0,0,0,32,0Z"/><path class="cls-2" d="M48.14,49.53H15.86a1.39,1.39,0,0,1-1.39-1.39V42.76C14.47,38.32,23.29,36,32,36s17.53,2.32,17.53,6.76v5.38A1.39,1.39,0,0,1,48.14,49.53Zm-30.9-2.77H46.76v-4c0-1.35-5.21-4-14.76-4s-14.76,2.64-14.76,4Z"/><path class="cls-2" d="M32,32.31a8.92,8.92,0,1,1,8.92-8.92A8.93,8.93,0,0,1,32,32.31Zm0-15.07a6.15,6.15,0,1,0,6.15,6.15A6.16,6.16,0,0,0,32,17.24Z"/></g></g></svg>