<svg xmlns="http://www.w3.org/2000/svg" viewBox="0 0 64 64"><defs><style>.cls-1{fill:#fff;}</style></defs><g id="Warstwa_2" data-name="Warstwa 2"><g id="Warstwa_1-2" data-name="Warstwa 1"><path class="cls-1" d="M32,39.38c-9.12,0-13.88,2.48-14.15,3.42v3.34H46.14V42.76C45.88,41.86,41.12,39.38,32,39.38Z"/><path class="cls-1" d="M54.67,9.24A31,31,0,0,0,32,0,31,31,0,0,0,9.33,9.24,30.47,30.47,0,0,0,0,31.76,31.2,31.2,0,0,0,9.33,54.6,30.71,30.71,0,0,0,32,64a30.72,30.72,0,0,0,22.67-9.4A31.2,31.2,0,0,0,64,31.76,30.47,30.47,0,0,0,54.67,9.24ZM32,13.86a9.53,9.53,0,1,1-9.53,9.53A9.53,9.53,0,0,1,32,13.86ZM50.14,48.14a2,2,0,0,1-2,2H15.86a2,2,0,0,1-2-2V42.76c0-5.07,9.4-7.38,18.14-7.38s18.14,2.31,18.14,7.38Z"/><path class="cls-1" d="M32,28.92a5.53,5.53,0,1,0-5.53-5.53A5.54,5.54,0,0,0,32,28.92Z"/></g></g></svg>